<?xml version="1.0" encoding="UTF-8"?>
<svg width="138px" height="39px" viewBox="0 0 138 39" version="1.1" xmlns="http://www.w3.org/2000/svg" xmlns:xlink="http://www.w3.org/1999/xlink">
    <!-- Generator: Sketch 43.1 (39012) - http://www.bohemiancoding.com/sketch -->
    <title>remita_login_logo</title>
    <desc>Created with Sketch.</desc>
    <defs>
        <polygon id="path-1" points="9.33766459 24.1305199 0 24.1305199 0 0.00804350664 18.6753292 0.00804350664 18.6753292 24.1305199"></polygon>
        <polygon id="path-3" points="0.127181578 23.7283446 6.00382678 23.7283446 6.00382678 0.130566221 0.127181578 0.130566221 0.127181578 23.7283446"></polygon>
    </defs>
    <g id="Page-1" stroke="none" stroke-width="1" fill="none" fill-rule="evenodd">
        <g id="Remita_Web_Login" transform="translate(-215.000000, -121.000000)">
            <g id="remita_login_logo" transform="translate(215.000000, 121.000000)">
                <path d="M124.314514,32.815094 C120.218251,33.1370354 116.814882,30.4245638 116.814882,25.6899548 C116.814882,20.9603729 120.211215,18.3017928 124.301449,18.6110657 C132.767757,19.2507255 132.778612,32.1500971 124.314514,32.815094 L124.314514,32.815094 Z M137.370577,15.0019442 L137.368165,15.0019442 L137.368165,14.5066653 C137.368165,14.2450503 137.154286,14.0331039 136.890153,14.0331039 L131.974154,14.0331039 C131.710223,14.0331039 131.496143,14.2450503 131.496143,14.5066653 L131.496143,14.9850529 L131.498957,14.9874659 L131.496143,14.9874659 L131.496143,15.1036946 C131.472021,15.3349454 131.198441,15.4081413 131.034011,15.2436516 C130.071757,14.2810449 126.890107,13.3902266 123.989877,13.3902266 C117.058712,13.3425688 111.620076,17.5857196 111.620076,25.6899548 C111.620076,33.9371632 116.817897,38.2275696 123.845549,38.1805151 C126.462952,38.1330584 129.466705,37.8093073 131.495942,35.1290098 L131.495942,37.7867855 C131.495942,38.0481994 131.710223,38.2601458 131.974154,38.2601458 L136.890153,38.2601458 C137.154286,38.2601458 137.368165,38.0481994 137.368165,37.7867855 L137.368165,36.8837008 L137.370577,36.0793501 L137.370577,15.0019442 Z" id="Fill-1" fill="#F16521"></path>
                <path d="M23.704841,27.7875002 C24.0897828,30.6954289 26.6410529,32.7933766 30.7801328,32.7933766 C32.946059,32.7933766 35.7857842,31.9825911 37.1335833,30.6005156 L40.8879224,34.2709687 C38.3850967,36.845293 34.2936571,38.0847974 30.6836461,38.0847974 C22.5011689,38.0847974 17.6398456,33.0791221 17.6398456,25.5467803 C17.6398456,18.3961029 22.5496133,13.2474543 30.2506619,13.2474543 C38.1927262,13.2474543 43.1499333,18.1101563 42.2357214,27.7875002 L23.704841,27.7875002 Z M36.6041124,22.972456 C36.2191705,19.921554 33.8126305,18.3961029 30.4432333,18.3961029 C27.2664076,18.3961029 24.6670951,19.921554 23.8009257,22.972456 L36.6041124,22.972456 Z" id="Fill-3" fill="#F16521"></path>
                <g id="Group-7" transform="translate(0.000000, 14.139077)">
                    <mask id="mask-2" fill="white">
                        <use xlink:href="#path-1"></use>
                    </mask>
                    <g id="Clip-6"></g>
                    <path d="M12.5626935,0.00804350664 C10.1563545,0.00804350664 7.70096815,0.437365673 5.8723435,3.34529441 L5.8723435,1.04646021 C5.8723435,0.785046248 5.65826356,0.573099848 5.39413112,0.573099848 L0.478332989,0.573099848 C0.214200552,0.573099848 -8.04056126e-05,0.785046248 -8.04056126e-05,1.04646021 L-8.04056126e-05,2.4454271 L-8.04056126e-05,3.31814757 L-8.04056126e-05,4.09233509 L-8.04056126e-05,6.37508227 L-8.04056126e-05,19.4381392 L-8.04056126e-05,20.6657794 L0.00554798726,20.6720131 L-8.04056126e-05,20.6752305 L-8.04056126e-05,22.3979486 L-8.04056126e-05,23.6567574 C-8.04056126e-05,23.9183724 0.214200552,24.1305199 0.478332989,24.1305199 L5.39413112,24.1305199 C5.65826356,24.1305199 5.8723435,23.9183724 5.8723435,23.6567574 L5.8723435,21.2048955 C5.8723435,21.0860526 5.88621347,20.9734436 5.8723435,20.8588236 L5.8723435,17.2108922 L5.8723435,11.7354762 C5.8723435,7.39781414 8.71186771,5.77664538 11.7924077,5.77664538 C13.7175191,5.77664538 14.8247044,6.30088092 16.0283764,7.30189532 L18.6753292,2.24876337 C17.3759745,0.961601218 15.0170748,0.00804350664 12.5626935,0.00804350664" id="Fill-5" fill="#F16521" mask="url(#mask-2)"></path>
                </g>
                <g id="Group-10" transform="translate(85.229949, 14.541252)">
                    <mask id="mask-4" fill="white">
                        <use xlink:href="#path-3"></use>
                    </mask>
                    <g id="Clip-9"></g>
                    <path d="M6.00382678,20.7677912 L6.00382678,11.1429312 L6.00161563,11.1429312 L6.00161563,0.603926587 C6.00161563,0.342512621 5.78753568,0.130566221 5.52320223,0.130566221 L0.607605112,0.130566221 C0.343472675,0.130566221 0.128990704,0.342512621 0.128990704,0.603926587 L0.128990704,16.3257647 C0.128990704,16.3340093 0.131402872,16.3418517 0.1318049,16.3500963 L0.1318049,20.2636644 L0.139644448,20.2731155 L0.128990704,20.2731155 L0.128990704,20.7758347 C0.128387662,20.7895087 0.127181578,20.8037859 0.127181578,20.8180631 C0.127181578,20.8321393 0.128387662,20.8462154 0.128990704,20.8602915 L0.128990704,23.2546424 C0.128990704,23.5162574 0.343472675,23.7284049 0.607605112,23.7284049 L5.52320223,23.7284049 C5.78753568,23.7284049 6.00161563,23.5162574 6.00161563,23.2546424 L6.00161563,20.861297 C6.00181664,20.8466176 6.00382678,20.8323403 6.00382678,20.8180631 C6.00382678,20.8037859 6.00241968,20.7895087 6.00161563,20.7756336 L6.00161563,20.7679923 L6.00382678,20.7677912 Z" id="Fill-8" fill="#F16521" mask="url(#mask-4)"></path>
                </g>
                <path d="M71.7575868,14.4333487 C68.6772478,14.4333487 65.9336073,15.3865043 63.8157235,18.7237552 C62.4679244,15.4818198 59.6281992,14.3380332 56.788474,14.3380332 C54.526061,14.3380332 51.7826215,15.1958732 50.5315102,17.5795664 L50.5315102,15.1856177 C50.5315102,14.9240026 50.3172293,14.7120562 50.0530968,14.7120562 L45.1372987,14.7120562 C44.8731662,14.7120562 44.6590863,14.9240026 44.6590863,15.1856177 L44.6590863,18.1836337 L44.6590863,20.5142398 L44.6590863,32.4580428 L44.6590863,34.8049369 L44.6590863,37.7866648 C44.6590863,38.0480788 44.8731662,38.2602263 45.1372987,38.2602263 L50.0530968,38.2602263 C50.3172293,38.2602263 50.5315102,38.0480788 50.5315102,37.7866648 L50.5315102,34.8049369 L50.5315102,25.6842036 C50.5315102,22.5852416 52.4085792,19.7726284 55.585204,19.7726284 C58.8098711,19.7726284 60.4465273,22.5852416 60.4465273,25.6842036 L60.4465273,34.8049369 L60.4616034,34.8228337 L60.4616034,37.7959149 C60.4616034,38.0575299 60.6756833,38.2694763 60.9398157,38.2694763 L65.8556139,38.2694763 C66.1197463,38.2694763 66.3340273,38.0575299 66.3340273,37.7959149 L66.3340273,31.3500497 L66.3185492,31.3500497 L66.3185492,25.6842036 C66.3185492,22.5852416 68.2919039,19.867944 71.4687297,19.867944 C74.6453544,19.867944 75.9451111,22.4899261 75.9451111,25.5884859 L75.9451111,32.4580428 L75.9447091,32.4580428 L75.9447091,37.7866648 C75.9447091,38.0480788 76.1589901,38.2602263 76.4229215,38.2602263 L81.3387196,38.2602263 C81.6030531,38.2602263 81.817133,38.0480788 81.817133,37.7866648 L81.817133,34.8049369 L81.817133,32.4580428 L81.817133,25.5884859 C81.817133,18.5331241 78.4959792,14.4333487 71.7575868,14.4333487" id="Fill-11" fill="#F16521"></path>
                <path d="M66.2954728,9.81559169 C65.1147164,10.9967806 63.2002587,10.9967806 62.0195023,9.81559169 C60.8387459,8.63440274 60.8387459,6.71924381 62.0195023,5.53805486 C63.2002587,4.35686591 65.1147164,4.35686591 66.2954728,5.53805486 C67.4762292,6.71924381 67.4762292,8.63440274 66.2954728,9.81559169" id="Fill-13" fill="#F16521"></path>
                <path d="M66.2954728,5.53815541 C67.4762292,6.71934436 67.4762292,8.63450329 66.2954728,9.81569224 C65.1147164,10.9968812 63.2002587,10.9968812 62.0195023,9.81569224" id="Fill-15" fill="#D95129"></path>
                <path d="M78.47037,9.52642763 C76.9042697,11.0931016 74.3650605,11.0931016 72.7989601,9.52642763 C71.2330608,7.95975362 71.2330608,5.41961423 72.7989601,3.85294022 C74.3650605,2.28646731 76.9042697,2.28646731 78.47037,3.85294022 C80.0364703,5.41961423 80.0364703,7.95975362 78.47037,9.52642763" id="Fill-17" fill="#F16521"></path>
                <path d="M78.47037,3.85306087 C80.0364703,5.41973488 80.0364703,7.95987428 78.47037,9.52654828 C76.9042697,11.0930212 74.3650605,11.0930212 72.7989601,9.52654828" id="Fill-19" fill="#D95129"></path>
                <path d="M92.2633699,9.13426646 C90.1746331,11.2237684 86.7881497,11.2237684 84.6990109,9.13426646 C82.6104751,7.04476453 82.6104751,3.65683953 84.6990109,1.56713651 C86.7881497,-0.52236543 90.1746331,-0.52236543 92.2633699,1.56713651 C94.3523077,3.65683953 94.3523077,7.04476453 92.2633699,9.13426646" id="Fill-21" fill="#1CA78B"></path>
                <path d="M92.2633699,1.56727727 C94.3523077,3.6567792 94.3523077,7.0447042 92.2633699,9.13440722 C90.1746331,11.2239092 86.7881497,11.2239092 84.6990109,9.13440722" id="Fill-23" fill="#168972"></path>
                <path d="M110.244517,31.8506977 C110.244517,31.8506977 109.161253,32.2019978 108.467754,32.3747321 C107.774859,32.5484719 107.182269,32.6353418 106.691594,32.6353418 C106.315899,32.6353418 105.961913,32.5919068 105.630039,32.5054391 C105.297361,32.4183682 105.00187,32.2599111 104.741557,32.0286603 C104.481646,31.7976105 104.271586,31.4796909 104.113187,31.0749015 C103.954386,30.6705142 103.875187,30.1503004 103.875187,29.5144612 L103.875187,16.8744927 L109.915055,16.8744927 C110.176574,16.8744927 110.388443,16.6601332 110.388443,16.3961051 L110.388443,11.4785063 C110.388443,11.2142771 110.176574,10.9999176 109.915055,10.9999176 L103.875187,10.9999176 L103.875187,3.78529433 L101.838512,3.78529433 C101.376381,6.41491774 100.517247,8.55308289 99.2607085,10.1999909 C98.0041698,11.8475021 96.3644984,13.0900228 94.3429002,13.927754 L94.3429002,16.7451933 L97.6357111,16.7451933 L97.6357111,29.0811173 C97.6357111,30.6415576 97.7728027,32.0001058 98.0475888,33.1551534 C98.321772,34.3112064 98.7623947,35.2649652 99.3688541,36.0162287 C99.9755144,36.7678944 100.783792,37.3239018 101.795093,37.6848541 C102.805993,38.0456054 104.733517,38.255742 106.206145,38.2267854 C109.697357,38.1582145 111.103651,37.214309 111.73966,36.8089163 L110.244517,31.8506977 Z" id="Fill-25" fill="#F16521"></path>
            </g>
        </g>
    </g>
</svg>